<svg viewBox="0 0 680 560" xmlns="http://www.w3.org/2000/svg" role="img" aria-labelledby="heroTitle">
  <title id="heroTitle">Illustration of roommates sharing expenses</title>
  <defs>
    <linearGradient id="leafGrad" x1="0%" y1="0%" x2="100%" y2="100%">
      <stop offset="0%" stop-color="#7dd29a" />
      <stop offset="100%" stop-color="#3a7d4f" />
    </linearGradient>
    <linearGradient id="cardGrad" x1="0%" y1="0%" x2="0%" y2="100%">
      <stop offset="0%" stop-color="#f8fff6" />
      <stop offset="100%" stop-color="#e8f5e7" />
    </linearGradient>
  </defs>
  <rect width="680" height="560" rx="48" fill="#f4fbf3" />
  <circle cx="156" cy="130" r="84" fill="#ddf3dc" />
  <circle cx="540" cy="100" r="64" fill="#e6f6e4" />
  <path d="M100 420c80-30 180-70 260-32 90 43 170 23 210-16" fill="none" stroke="#b9dfb9" stroke-width="22" stroke-linecap="round" />
  <rect x="122" y="172" width="200" height="240" rx="32" fill="url(#cardGrad)" stroke="#c6e3cc" stroke-width="2" />
  <rect x="366" y="210" width="208" height="192" rx="30" fill="url(#cardGrad)" stroke="#c6e3cc" stroke-width="2" />
  <circle cx="180" cy="250" r="18" fill="#4ea565" />
  <rect x="210" y="236" width="120" height="16" rx="8" fill="#65b77a" />
  <rect x="210" y="266" width="88" height="12" rx="6" fill="#9bd8a8" />
  <circle cx="360" cy="260" r="16" fill="#4ea565" />
  <rect x="390" y="244" width="140" height="18" rx="9" fill="#8ed39a" />
  <rect x="390" y="280" width="104" height="12" rx="6" fill="#c3e7ca" />
  <path d="M160 370c28-22 68-36 115-34" fill="none" stroke="#5aad7d" stroke-width="18" stroke-linecap="round" />
  <circle cx="506" cy="372" r="24" fill="#d6f0d5" stroke="#7abf8f" stroke-width="4" />
  <path d="M150 70c28-24 70-40 109-34" fill="none" stroke="#a2d6ae" stroke-width="18" stroke-linecap="round" opacity="0.85" />
  <ellipse cx="520" cy="452" rx="94" ry="128" fill="url(#leafGrad)" opacity="0.45" />
  <ellipse cx="520" cy="452" rx="68" ry="88" fill="#def1de" opacity="0.65" />
</svg>