<svg viewBox="0 0 520 420" xmlns="http://www.w3.org/2000/svg" role="img" aria-labelledby="expenseTitle">
  <title id="expenseTitle">Illustration of expense tracking and payment splitting</title>
  <defs>
    <linearGradient id="bgGrad" x1="0" y1="0" x2="1" y2="1">
      <stop offset="0%" stop-color="#f7fff6" />
      <stop offset="100%" stop-color="#e1f3de" />
    </linearGradient>
  </defs>
  <rect width="520" height="420" rx="40" fill="url(#bgGrad)" />
  <rect x="54" y="80" width="416" height="248" rx="28" fill="#ffffff" stroke="#b3d6b4" stroke-width="3" />
  <circle cx="150" cy="164" r="26" fill="#71b276" />
  <rect x="196" y="150" width="232" height="18" rx="9" fill="#c7e5ce" />
  <rect x="196" y="188" width="180" height="14" rx="7" fill="#d4eedb" />
  <rect x="196" y="216" width="140" height="14" rx="7" fill="#e9f6e8" />
  <rect x="86" y="240" width="136" height="16" rx="8" fill="#dae8db" />
  <rect x="86" y="278" width="76" height="16" rx="8" fill="#bbe0ba" />
  <path d="M114 74c28 28 64 18 92 0" fill="none" stroke="#70b07d" stroke-width="14" stroke-linecap="round" />
  <rect x="88" y="56" width="28" height="28" rx="8" fill="#7fcb8e" />
  <rect x="128" y="56" width="28" height="28" rx="8" fill="#81d08f" />
  <rect x="168" y="56" width="28" height="28" rx="8" fill="#9adaab" />
  <path d="M398 210c0 32-26 58-58 58s-58-26-58-58 26-58 58-58 58 26 58 58z" fill="#eaf6eb" stroke="#8ebe8f" stroke-width="4" />
  <path d="M360 206c0 14 14 16 20 20 6 4 16 1 16-8s-2-15-10-18c-7-3-26-6-26 6z" fill="#5fa86f" />
  <circle cx="388" cy="197" r="9" fill="#ffffff" />
  <path d="M432 116c0-30-52-48-76-56-12-4-32 2-36 18-8 36 26 62 40 112 8 28 38 34 44 8 4-18 4-42 4-82z" fill="#d7eed7" opacity="0.8" />
</svg>